<svg xmlns="http://www.w3.org/2000/svg" width="280" height="560" viewBox="0 0 280 560">
  <rect x="10" y="10" width="260" height="540" rx="30" fill="#1A1A1A"/>
  <rect x="20" y="20" width="240" height="520" rx="24" fill="#2A2A2A"/>
  <rect x="90" y="18" width="100" height="6" rx="3" fill="#333"/>
  <rect x="24" y="60" width="232" height="180" rx="12" fill="#333"/>
  <g transform="translate(140,150)">
    <rect x="-30" y="-22" width="60" height="52" rx="6" fill="#4CAF50" opacity="0.3"/>
    <circle cx="0" cy="-4" r="14" fill="none" stroke="#4CAF50" stroke-width="2"/>
    <circle cx="0" cy="-4" r="6" fill="#4CAF50" opacity="0.5"/>
    <rect x="-14" y="10" width="28" height="14" rx="3" fill="#4CAF50" opacity="0.3"/>
  </g>
  <text x="140" y="260" text-anchor="middle" font-family="Inter, system-ui, sans-serif" font-size="12" fill="#666">Preview Kamera</text>
  <rect x="24" y="280" width="232" height="12" rx="6" fill="#333"/>
  <g transform="translate(140,320)">
    <rect x="-80" y="-12" width="160" height="24" rx="6" fill="#4CAF50" opacity="0.15"/>
    <text x="0" y="4" text-anchor="middle" font-family="Inter, system-ui, sans-serif" font-size="9" fill="#4CAF50">Deteksi: AMAN</text>
  </g>
  <rect x="60" y="365" width="160" height="32" rx="16" fill="#2E7D32"/>
  <text x="140" y="385" text-anchor="middle" font-family="Inter, system-ui, sans-serif" font-size="11" fill="white" font-weight="600">Kirim Laporan</text>
  <rect x="70" y="420" width="140" height="1" fill="#333"/>
  <rect x="110" y="445" width="60" height="60" rx="30" fill="#333"/>
  <g transform="translate(140,475)">
    <circle cx="0" cy="0" r="16" fill="none" stroke="#666" stroke-width="1.5"/>
    <circle cx="0" cy="0" r="6" fill="#666" opacity="0.5"/>
  </g>
  <text x="140" y="530" text-anchor="middle" font-family="Inter, system-ui, sans-serif" font-size="10" fill="#555">Placeholder Aplikasi Android</text>
</svg>
